<svg width="28" height="28" viewBox="0 0 28 28" fill="none" xmlns="http://www.w3.org/2000/svg">
<path d="M14 2.625C11.7502 2.625 9.551 3.29213 7.68039 4.54203C5.80978 5.79193 4.35182 7.56847 3.49088 9.64698C2.62993 11.7255 2.40467 14.0126 2.84357 16.2192C3.28248 18.4257 4.36584 20.4525 5.95667 22.0433C7.54749 23.6342 9.57432 24.7175 11.7809 25.1564C13.9874 25.5953 16.2745 25.3701 18.353 24.5091C20.4315 23.6482 22.2081 22.1902 23.458 20.3196C24.7079 18.449 25.375 16.2498 25.375 14C25.3692 10.9849 24.1689 8.09502 22.037 5.96305C19.905 3.83107 17.0151 2.63078 14 2.625ZM16.3406 17.2922C16.5117 17.4489 16.6136 17.6671 16.6239 17.8988C16.6341 18.1306 16.5519 18.357 16.3953 18.5281C16.3138 18.6182 16.2142 18.6901 16.103 18.7391C15.9918 18.7881 15.8715 18.8131 15.75 18.8125C15.5317 18.8104 15.3217 18.7287 15.1594 18.5828L10.7844 14.6453C10.6949 14.5633 10.6234 14.4636 10.5745 14.3525C10.5256 14.2414 10.5003 14.1214 10.5003 14C10.5003 13.8786 10.5256 13.7586 10.5745 13.6475C10.6234 13.5364 10.6949 13.4367 10.7844 13.3547L15.1594 9.41719C15.2436 9.33669 15.343 9.27382 15.4519 9.23226C15.5607 9.19071 15.6768 9.17131 15.7932 9.1752C15.9096 9.17909 16.0241 9.20619 16.1299 9.25491C16.2358 9.30364 16.3308 9.37301 16.4094 9.45895C16.4881 9.54489 16.5488 9.64567 16.588 9.75538C16.6272 9.86509 16.6441 9.98152 16.6377 10.0978C16.6312 10.2142 16.6017 10.328 16.5507 10.4328C16.4997 10.5375 16.4283 10.631 16.3406 10.7078L12.6875 14L16.3406 17.2922Z" fill="#474747"/>
</svg>
