<svg width="91" height="44" viewBox="0 0 91 44" fill="none" xmlns="http://www.w3.org/2000/svg">
<rect width="91" height="44" rx="12" fill="white"/>
<path d="M26 13.875C24.393 13.875 22.8221 14.3515 21.486 15.2443C20.1498 16.1371 19.1084 17.406 18.4935 18.8907C17.8785 20.3753 17.7176 22.009 18.0311 23.5851C18.3446 25.1612 19.1185 26.6089 20.2548 27.7452C21.3911 28.8815 22.8388 29.6554 24.4149 29.9689C25.991 30.2824 27.6247 30.1215 29.1093 29.5065C30.594 28.8916 31.8629 27.8502 32.7557 26.514C33.6485 25.1779 34.125 23.607 34.125 22C34.1209 19.8464 33.2635 17.7822 31.7407 16.2593C30.2178 14.7365 28.1536 13.8791 26 13.875ZM26 27C25.8146 27 25.6333 26.945 25.4792 26.842C25.325 26.739 25.2048 26.5926 25.1339 26.4213C25.0629 26.25 25.0443 26.0615 25.0805 25.8796C25.1167 25.6977 25.206 25.5307 25.3371 25.3996C25.4682 25.2685 25.6352 25.1792 25.8171 25.143C25.999 25.1068 26.1875 25.1254 26.3588 25.1964C26.5301 25.2673 26.6765 25.3875 26.7795 25.5417C26.8825 25.6958 26.9375 25.8771 26.9375 26.0625C26.9375 26.3111 26.8387 26.5496 26.6629 26.7254C26.4871 26.9012 26.2486 27 26 27ZM26.625 23.1797V23.25C26.625 23.4158 26.5592 23.5747 26.4419 23.6919C26.3247 23.8092 26.1658 23.875 26 23.875C25.8342 23.875 25.6753 23.8092 25.5581 23.6919C25.4409 23.5747 25.375 23.4158 25.375 23.25V22.625C25.375 22.4592 25.4409 22.3003 25.5581 22.1831C25.6753 22.0658 25.8342 22 26 22C26.309 22 26.6111 21.9084 26.8681 21.7367C27.125 21.565 27.3253 21.321 27.4436 21.0354C27.5618 20.7499 27.5928 20.4358 27.5325 20.1327C27.4722 19.8296 27.3234 19.5512 27.1049 19.3326C26.8863 19.1141 26.6079 18.9653 26.3048 18.905C26.0017 18.8447 25.6876 18.8757 25.4021 18.9939C25.1166 19.1122 24.8725 19.3125 24.7008 19.5694C24.5291 19.8264 24.4375 20.1285 24.4375 20.4375C24.4375 20.6033 24.3717 20.7622 24.2544 20.8794C24.1372 20.9967 23.9783 21.0625 23.8125 21.0625C23.6467 21.0625 23.4878 20.9967 23.3706 20.8794C23.2534 20.7622 23.1875 20.6033 23.1875 20.4375C23.1875 19.9081 23.337 19.3894 23.6187 18.9411C23.9004 18.4928 24.3029 18.1331 24.7799 17.9034C25.2569 17.6738 25.7891 17.5834 26.3152 17.6427C26.8413 17.7021 27.34 17.9087 27.7539 18.2389C28.1678 18.5691 28.4801 19.0093 28.6549 19.5091C28.8296 20.0089 28.8598 20.5478 28.7418 21.064C28.6239 21.5801 28.3627 22.0525 27.9882 22.4268C27.6137 22.8011 27.1412 23.062 26.625 23.1797Z" fill="#474747"/>
<path d="M50.5938 28H49.2656V22.6172H43.2656V28H41.9375V16.5781H43.2656V21.4453H49.2656V16.5781H50.5938V28ZM56.8359 19.2812C57.5651 19.2812 58.1901 19.4427 58.7109 19.7656C59.2318 20.0885 59.6302 20.5417 59.9062 21.125C60.1823 21.7031 60.3203 22.3802 60.3203 23.1562V23.9609H54.4062C54.4219 24.9661 54.6719 25.7318 55.1562 26.2578C55.6406 26.7839 56.3229 27.0469 57.2031 27.0469C57.7448 27.0469 58.224 26.9974 58.6406 26.8984C59.0573 26.7995 59.4896 26.6536 59.9375 26.4609V27.6016C59.5052 27.7943 59.0755 27.9349 58.6484 28.0234C58.2266 28.112 57.7266 28.1562 57.1484 28.1562C56.3255 28.1562 55.6068 27.9896 54.9922 27.6562C54.3828 27.3177 53.9089 26.8229 53.5703 26.1719C53.2318 25.5208 53.0625 24.724 53.0625 23.7812C53.0625 22.8594 53.2161 22.0625 53.5234 21.3906C53.8359 20.7135 54.2734 20.1927 54.8359 19.8281C55.4036 19.4635 56.0703 19.2812 56.8359 19.2812ZM56.8203 20.3438C56.1276 20.3438 55.5755 20.5703 55.1641 21.0234C54.7526 21.4766 54.5078 22.1094 54.4297 22.9219H58.9609C58.9557 22.4115 58.875 21.9635 58.7188 21.5781C58.5677 21.1875 58.3359 20.8854 58.0234 20.6719C57.7109 20.4531 57.3099 20.3438 56.8203 20.3438ZM63.8281 28H62.5234V15.8438H63.8281V28ZM70.5938 19.2812C71.6615 19.2812 72.513 19.6484 73.1484 20.3828C73.7839 21.1172 74.1016 22.2214 74.1016 23.6953C74.1016 24.6693 73.9557 25.487 73.6641 26.1484C73.3724 26.8099 72.9609 27.3099 72.4297 27.6484C71.9036 27.987 71.2812 28.1562 70.5625 28.1562C70.1094 28.1562 69.7109 28.0964 69.3672 27.9766C69.0234 27.8568 68.7292 27.6953 68.4844 27.4922C68.2396 27.2891 68.0365 27.0677 67.875 26.8281H67.7812C67.7969 27.0312 67.8151 27.276 67.8359 27.5625C67.862 27.849 67.875 28.099 67.875 28.3125V31.8281H66.5703V19.4375H67.6406L67.8125 20.7031H67.875C68.0417 20.4427 68.2448 20.2057 68.4844 19.9922C68.724 19.7734 69.0156 19.6016 69.3594 19.4766C69.7083 19.3464 70.1198 19.2812 70.5938 19.2812ZM70.3672 20.375C69.7734 20.375 69.2943 20.4896 68.9297 20.7188C68.5703 20.9479 68.3073 21.2917 68.1406 21.75C67.974 22.2031 67.8854 22.7734 67.875 23.4609V23.7109C67.875 24.4349 67.9531 25.0469 68.1094 25.5469C68.2708 26.0469 68.5339 26.4271 68.8984 26.6875C69.2682 26.9479 69.763 27.0781 70.3828 27.0781C70.9141 27.0781 71.3568 26.9349 71.7109 26.6484C72.0651 26.362 72.3281 25.9635 72.5 25.4531C72.6771 24.9375 72.7656 24.3464 72.7656 23.6797C72.7656 22.6693 72.5677 21.8672 72.1719 21.2734C71.7812 20.6745 71.1797 20.375 70.3672 20.375Z" fill="#474747"/>
</svg>
