<svg width="75" height="16" viewBox="0 0 75 16" fill="none" xmlns="http://www.w3.org/2000/svg">
<rect width="75" height="16" fill="white"/>
<path d="M8.24023 11.5762L2.60352 9.08008V8.52344L8.24023 5.73438V6.60156L3.6582 8.76367L8.24023 10.7148V11.5762ZM11.0352 13H10.0391V4.43359H14.8086V5.3125H11.0352V8.45312H14.5801V9.32617H11.0352V13ZM21.3945 6.57812V13H20.5977L20.457 12.0977H20.4043C20.2715 12.3203 20.0996 12.5078 19.8887 12.6602C19.6777 12.8125 19.4395 12.9258 19.1738 13C18.9121 13.0781 18.6328 13.1172 18.3359 13.1172C17.8281 13.1172 17.4023 13.0352 17.0586 12.8711C16.7148 12.707 16.4551 12.4531 16.2793 12.1094C16.1074 11.7656 16.0215 11.3242 16.0215 10.7852V6.57812H17.0059V10.7148C17.0059 11.25 17.127 11.6504 17.3691 11.916C17.6113 12.1777 17.9805 12.3086 18.4766 12.3086C18.9531 12.3086 19.332 12.2188 19.6133 12.0391C19.8984 11.8594 20.1035 11.5957 20.2285 11.248C20.3535 10.8965 20.416 10.4668 20.416 9.95898V6.57812H21.3945ZM24.4297 13H23.4512V3.88281H24.4297V13ZM27.4648 13H26.4863V3.88281H27.4648V13ZM39.4824 13H38.334L33.6641 5.80469H33.6172C33.6289 5.99609 33.6426 6.21484 33.6582 6.46094C33.6738 6.70312 33.6855 6.96289 33.6934 7.24023C33.7051 7.51367 33.7109 7.79297 33.7109 8.07812V13H32.7852V4.43359H33.9277L38.5801 11.6055H38.6211C38.6133 11.4688 38.6035 11.2754 38.5918 11.0254C38.5801 10.7715 38.5684 10.5 38.5566 10.2109C38.5488 9.91797 38.5449 9.64648 38.5449 9.39648V4.43359H39.4824V13ZM44.0762 6.47266C44.8418 6.47266 45.4102 6.64453 45.7812 6.98828C46.1523 7.33203 46.3379 7.88086 46.3379 8.63477V13H45.6289L45.4414 12.0508H45.3945C45.2148 12.2852 45.0273 12.4824 44.832 12.6426C44.6367 12.7988 44.4102 12.918 44.1523 13C43.8984 13.0781 43.5859 13.1172 43.2148 13.1172C42.8242 13.1172 42.4766 13.0488 42.1719 12.9121C41.8711 12.7754 41.6328 12.5684 41.457 12.291C41.2852 12.0137 41.1992 11.6621 41.1992 11.2363C41.1992 10.5957 41.4531 10.1035 41.9609 9.75977C42.4688 9.41602 43.2422 9.22852 44.2812 9.19727L45.3887 9.15039V8.75781C45.3887 8.20312 45.2695 7.81445 45.0312 7.5918C44.793 7.36914 44.457 7.25781 44.0234 7.25781C43.6875 7.25781 43.3672 7.30664 43.0625 7.4043C42.7578 7.50195 42.4688 7.61719 42.1953 7.75L41.8965 7.01172C42.1855 6.86328 42.5176 6.73633 42.8926 6.63086C43.2676 6.52539 43.6621 6.47266 44.0762 6.47266ZM45.377 9.83594L44.3984 9.87695C43.5977 9.9082 43.0332 10.0391 42.7051 10.2695C42.377 10.5 42.2129 10.8262 42.2129 11.248C42.2129 11.6152 42.3242 11.8867 42.5469 12.0625C42.7695 12.2383 43.0645 12.3262 43.4316 12.3262C44.002 12.3262 44.4688 12.168 44.832 11.8516C45.1953 11.5352 45.377 11.0605 45.377 10.4277V9.83594ZM55.3145 6.46094C56.0215 6.46094 56.5547 6.64648 56.9141 7.01758C57.2734 7.38477 57.4531 7.97656 57.4531 8.79297V13H56.4922V8.83984C56.4922 8.32031 56.3789 7.93164 56.1523 7.67383C55.9297 7.41211 55.5977 7.28125 55.1562 7.28125C54.5352 7.28125 54.084 7.46094 53.8027 7.82031C53.5215 8.17969 53.3809 8.70898 53.3809 9.4082V13H52.4141V8.83984C52.4141 8.49219 52.3633 8.20312 52.2617 7.97266C52.1641 7.74219 52.0156 7.57031 51.8164 7.45703C51.6211 7.33984 51.373 7.28125 51.0723 7.28125C50.6465 7.28125 50.3047 7.36914 50.0469 7.54492C49.7891 7.7207 49.6016 7.98242 49.4844 8.33008C49.3711 8.67383 49.3145 9.09766 49.3145 9.60156V13H48.3418V6.57812H49.127L49.2734 7.48633H49.3262C49.4551 7.26367 49.6172 7.07617 49.8125 6.92383C50.0078 6.77148 50.2266 6.65625 50.4688 6.57812C50.7109 6.5 50.9688 6.46094 51.2422 6.46094C51.7305 6.46094 52.1387 6.55273 52.4668 6.73633C52.7988 6.91602 53.0391 7.19141 53.1875 7.5625H53.2402C53.4512 7.19141 53.7402 6.91602 54.1074 6.73633C54.4746 6.55273 54.877 6.46094 55.3145 6.46094ZM61.9238 6.46094C62.4707 6.46094 62.9395 6.58203 63.3301 6.82422C63.7207 7.06641 64.0195 7.40625 64.2266 7.84375C64.4336 8.27734 64.5371 8.78516 64.5371 9.36719V9.9707H60.1016C60.1133 10.7246 60.3008 11.2988 60.6641 11.6934C61.0273 12.0879 61.5391 12.2852 62.1992 12.2852C62.6055 12.2852 62.9648 12.248 63.2773 12.1738C63.5898 12.0996 63.9141 11.9902 64.25 11.8457V12.7012C63.9258 12.8457 63.6035 12.9512 63.2832 13.0176C62.9668 13.084 62.5918 13.1172 62.1582 13.1172C61.541 13.1172 61.002 12.9922 60.541 12.7422C60.084 12.4883 59.7285 12.1172 59.4746 11.6289C59.2207 11.1406 59.0938 10.543 59.0938 9.83594C59.0938 9.14453 59.209 8.54688 59.4395 8.04297C59.6738 7.53516 60.002 7.14453 60.4238 6.87109C60.8496 6.59766 61.3496 6.46094 61.9238 6.46094ZM61.9121 7.25781C61.3926 7.25781 60.9785 7.42773 60.6699 7.76758C60.3613 8.10742 60.1777 8.58203 60.1191 9.19141H63.5176C63.5137 8.80859 63.4531 8.47266 63.3359 8.18359C63.2227 7.89062 63.0488 7.66406 62.8145 7.50391C62.5801 7.33984 62.2793 7.25781 61.9121 7.25781ZM65.7676 10.7148L70.3555 8.77539L65.7676 6.60156V5.73438L71.4043 8.52344V9.08008L65.7676 11.5762V10.7148Z" fill="#595959"/>
</svg>
